# xmcd
#
# Track frame offsets:
#	150
#	10639
#	42064
#	65262
#	77743
#	91853
#	104828
#	120446
#	136340
#	146425
#	159565
#	174411
#	218739
#	230829
#	242296
#
# Disc length: 3459 seconds
#
# Revision: 1
# Processed by: cddbd v1.5.2PL0 Copyright (c) Steve Scherf et al.
# Submitted via: audiograbber 1.83.01
#
DISCID=ba0d810f
DTITLE=Ike and Tina Turner - The Blues
DYEAR=2013
DGENRE=Blues
TTITLE0=Suffering With The Blues (Live)
TTITLE1=Proud Mary (Live)
TTITLE2=A Fool For You
TTITLE3=Rock Me Baby
TTITLE4=Down and Out (Vocals By Tommy Hodge)
TTITLE5=I'll Weep No More (Vocals By Betty Everett)
TTITLE6=Why I Sing The Blues
TTITLE7=I Can't Stop Loving You
TTITLE8=Keep On Pushing
TTITLE9=Ain't Got Nobody
TTITLE10=Got My Mojo Working
TTITLE11=I Smell Trouble (Live)
TTITLE12=Three O'Clock Blues
TTITLE13=I IDolize You
TTITLE14=Stormy Weather
EXTD=
EXTT0=
EXTT1=
EXTT2=
EXTT3=
EXTT4=
EXTT5=
EXTT6=
EXTT7=
EXTT8=
EXTT9=
EXTT10=
EXTT11=
EXTT12=
EXTT13=
EXTT14=
PLAYORDER=
